<?xml version="1.0" encoding="utf-8"?>
<!-- Svg Vector Icons : http://www.onlinewebfonts.com/icon -->
<!DOCTYPE svg PUBLIC "-//W3C//DTD SVG 1.1//EN" "http://www.w3.org/Graphics/SVG/1.1/DTD/svg11.dtd">
<svg version="1.1" xmlns="http://www.w3.org/2000/svg" xmlns:xlink="http://www.w3.org/1999/xlink" x="0px" y="0px" viewBox="0 0 1000 1000" enable-background="new 0 0 1000 1000" xml:space="preserve">
<metadata> Svg Vector Icons : http://www.onlinewebfonts.com/icon </metadata>
<g><path d="M930.8,420.7l-165.4,0L596.6,117.4C581,89.2,545,78.8,516.3,94.1l-1.3,0.7c-11.8,6.2-21.5,16.3-26.8,29.4L245.9,719.4l-124.6-224C105.7,467.4,69.8,457,41,472.2c-28.7,15.3-39.4,50.4-23.8,78.5l184.6,332c13.8,24.9,43.7,35.9,70.3,27.4l4-1.4l0.6-0.2c14.4-5.7,26.7-16.9,32.9-32.2l242.7-596.1l124.8,224.5c4.3,7.7,10.2,14,17,19c10.2,8.1,23.1,12.9,37.2,12.9l199.4,0.1c32.7,0,59.2-25.9,59.2-57.9C990,446.6,963.4,420.7,930.8,420.7L930.8,420.7z"/></g>
</svg>