<?xml version="1.0" encoding="utf-8"?>
<!-- Svg Vector Icons : http://www.onlinewebfonts.com/icon -->
<!DOCTYPE svg PUBLIC "-//W3C//DTD SVG 1.1//EN" "http://www.w3.org/Graphics/SVG/1.1/DTD/svg11.dtd">
<svg version="1.1" xmlns="http://www.w3.org/2000/svg" xmlns:xlink="http://www.w3.org/1999/xlink" x="0px" y="0px" viewBox="0 0 1000 1000" xml:space="preserve">
<metadata> Svg Vector Icons : http://www.onlinewebfonts.com/icon </metadata>
<g><path d="M500,990C229.4,990,10,770.6,10,500S229.4,10,500,10c270.6,0,490,219.4,490,490S770.6,990,500,990z M500,43.4C247.8,43.4,43.4,247.8,43.4,500S247.8,956.6,500,956.6S956.6,752.2,956.6,500S752.2,43.4,500,43.4z M703.5,520.8L402.2,709.3c0,0-0.1,0-0.1,0c-1.4,0.8-2.9,1.2-4.6,1.6c-0.8,0.2-1.6,0.4-2.4,0.5c-0.3,0-0.6,0.2-0.9,0.2c-0.7,0-1.3-0.3-1.9-0.4c-1.3-0.1-2.5-0.3-3.8-0.8c-0.8-0.3-1.5-0.7-2.2-1.1c-1.1-0.6-2.2-1.3-3.2-2.1c-0.7-0.6-1.3-1.4-1.9-2.2c-0.5-0.7-1.2-1.2-1.7-2c-0.2-0.3-0.2-0.7-0.3-1c-0.4-0.8-0.5-1.6-0.8-2.4c-0.5-1.5-0.8-2.9-0.9-4.4c0-0.1-0.1-0.2-0.1-0.3V305.1c0-0.1,0.1-0.2,0.1-0.3c0.1-1.5,0.4-2.9,0.9-4.4c0.2-0.8,0.4-1.7,0.8-2.4c0.2-0.3,0.2-0.7,0.3-1c0.4-0.8,1.1-1.3,1.7-2c0.6-0.8,1.1-1.5,1.9-2.2c1-0.9,2-1.5,3.2-2.1c0.7-0.4,1.4-0.8,2.2-1.1c1.2-0.4,2.5-0.6,3.8-0.8c0.7-0.1,1.3-0.4,1.9-0.4c0.3,0,0.6,0.2,0.9,0.2c0.8,0.1,1.6,0.3,2.4,0.5c1.6,0.3,3.2,0.8,4.6,1.6c0,0,0.1,0,0.1,0l301.3,188.5c7.1,4.3,9.7,13.1,6.9,20.8C713.2,507.7,710.6,516.5,703.5,520.8z M410.9,663.8L672.8,500L410.9,336.2V663.8z"/></g>
</svg>
