<?xml version="1.0" encoding="utf-8"?>
<!-- Svg Vector Icons : http://www.onlinewebfonts.com/icon -->
<!DOCTYPE svg PUBLIC "-//W3C//DTD SVG 1.1//EN" "http://www.w3.org/Graphics/SVG/1.1/DTD/svg11.dtd">
<svg version="1.1" xmlns="http://www.w3.org/2000/svg" xmlns:xlink="http://www.w3.org/1999/xlink" x="0px" y="0px" viewBox="0 0 1000 1000" enable-background="new 0 0 1000 1000" xml:space="preserve">
<metadata> Svg Vector Icons : http://www.onlinewebfonts.com/icon </metadata>
<g><path d="M500,10C229.4,10,10,229.4,10,500c0,270.6,219.4,490,490,490c270.6,0,490-219.4,490-490C990,229.4,770.6,10,500,10z M499.4,907.3C273.8,907.3,91,724.5,91,499C91,273.5,273.8,90.7,499.4,90.7c225.5,0,408.3,182.8,408.3,408.3C907.7,724.5,724.9,907.3,499.4,907.3z"/><path d="M356.9,252c-22.6,0-40.8,17.6-40.8,39.2v411c0,21.7,18.3,39.2,40.8,39.2c22.5,0,40.8-17.6,40.8-39.2v-411C397.7,269.6,379.5,252,356.9,252z"/><path d="M643.1,251.9c-22.6,0-40.8,17.6-40.8,39.2v411c0,21.7,18.3,39.2,40.8,39.2c22.5,0,40.8-17.6,40.8-39.2v-411C683.9,269.5,665.6,251.9,643.1,251.9z"/></g>
</svg>